<?xml version="1.0" encoding="utf-8"?>
<!-- Generator: Adobe Illustrator 19.0.1, SVG Export Plug-In . SVG Version: 6.00 Build 0)  -->
<svg version="1.1" id="Layer_1" xmlns="http://www.w3.org/2000/svg" xmlns:xlink="http://www.w3.org/1999/xlink" x="0px" y="0px"
	 viewBox="-323.4 261 39 39" style="enable-background:new -323.4 261 39 39;" xml:space="preserve">
<style type="text/css">
	.st0{fill:#4091CE;}
	.st1{fill:#F34336;}
</style>
<g>
	<path class="st0" d="M-319.9,279.3c2-4.7,3.1-10,3.1-15.5h18.9c0,8.8-2,17.2-5.5,24.8h-7.2L-319.9,279.3L-319.9,279.3z
		 M-310.6,286.5h6c2.8-6.4,4.4-13.3,4.7-20.6h-14.9c-0.2,4.8-1.2,9.2-2.9,13.4L-310.6,286.5L-310.6,286.5z"/>
	<path class="st1" d="M-298.1,268.4c3.4-0.7,7.1,0.3,8.4,2c3,3.7,0,12.7-7.9,19.1c-7.3,5.9-16.1,8.2-18.9,4.8
		c-1.9-2.4-0.5-7.1,2-9.6l3.9,3.9v-9.3h-9.3l3.9,3.9c-3.3,3.3-4.8,8.8-2.2,12.3c0.8,1.1,2.1,1.7,3.5,2.1c4.4,1,11.2-1.5,17.3-6.3
		c8.7-7,12.4-16.3,8.7-20.9C-290.6,268.1-294,267.5-298.1,268.4"/>
</g>
</svg>
